# xmcd
#
# Track frame offsets: 
#        150
#        20103
#        36099
#        49749
#        68193
#        82929
#        100555
#        110713
#        123308
#        140247
#
# Disc length: 2088 seconds
#
# Revision: 0
# Processed by: cddbd v1.5.2PL0 Copyright (c) Steve Scherf et al.
# Submitted via: ExactAudioCopy v1.0b3
#
DISCID=8808260a
DTITLE=Various Artist - Christian Country - Volume Seven
DYEAR=1997
DGENRE=Gospel
TTITLE0=All My Tears (Emmylou Harris)
TTITLE1=Angel By the Wings (Scott Brown)
TTITLE2=I See An Angel (Lori Willcuts)
TTITLE3=Startin' All Over Again (Wendy Manley)
TTITLE4=Elijah (The Dunaways)
TTITLE5=I'll Be Your Pillow (1 A Chord)
TTITLE6=New Walk (Robert William Welch)
TTITLE7=Gloryland (Double Portion)
TTITLE8=Best Thing That Ever Happened to Me (Rick Tanksley)
TTITLE9=God is Good (Suzzette Michaels)
EXTD=
EXTT0=
EXTT1=
EXTT2=
EXTT3=
EXTT4=
EXTT5=
EXTT6=
EXTT7=
EXTT8=
EXTT9=
PLAYORDER=
